<svg width="32" height="32" viewBox="0 0 32 32" fill="none" xmlns="http://www.w3.org/2000/svg">
<path d="M12.6662 5.25028L9.95998 6.94168C9.48355 7.23944 9.33332 7.73193 9.33332 8.26101C9.33332 9.30827 10.4852 9.94672 11.3733 9.39168L13.8913 7.81789C14.3585 7.52589 14.9573 7.55132 15.398 7.88189L17.3333 9.33335L12.3901 14.2765C12.1305 14.5361 11.8927 14.8168 11.6793 15.1156L9.2615 18.5005C8.91065 18.9917 8.27357 19.1859 7.70837 18.974L4.28009 17.6884C3.72558 17.4804 3.10092 17.6819 2.77242 18.1747C2.35734 18.7973 2.56557 19.6419 3.22249 20.0001L6.51877 21.7981C8.16357 22.6953 10.2107 22.3305 11.4445 20.9205L14 18L16.4001 21.3601C16.9742 22.164 17.057 23.2192 16.6153 24.1027L14.2981 28.7371C13.8549 29.6236 14.4994 30.6667 15.4906 30.6667C16.1182 30.6667 16.7222 30.5556 17.0352 29.9296L19.6634 24.6732C20.2865 23.4268 20.2162 21.946 19.4777 20.7643L17.3333 17.3333L21.3333 13.3333L23.1629 14.5531C24.8088 15.6504 26.6308 15.5675 28.4216 14.9705C29.0417 14.7639 29.3333 14.1929 29.3333 13.574C29.3333 12.75 28.5934 12.1233 27.7808 12.2588C26.8604 12.4122 25.5282 12.9265 24.8469 12.0182C22.6206 9.04976 19.993 6.95912 16.7288 5.14564C15.4564 4.43877 13.9005 4.47885 12.6662 5.25028Z" fill="#FF0000"/>
<path d="M24.6667 7.99999C26.5076 7.99999 28 6.50761 28 4.66666C28 2.82571 26.5076 1.33333 24.6667 1.33333C22.8257 1.33333 21.3333 2.82571 21.3333 4.66666C21.3333 6.50761 22.8257 7.99999 24.6667 7.99999Z" fill="#FF0000"/>
</svg>
